<svg width="1363" height="1233" xmlns="http://www.w3.org/2000/svg" xmlns:xlink="http://www.w3.org/1999/xlink" xml:space="preserve" overflow="hidden"><defs><filter id="fx0" x="-10%" y="-10%" width="120%" height="120%" filterUnits="userSpaceOnUse" primitiveUnits="userSpaceOnUse"><feComponentTransfer color-interpolation-filters="sRGB"><feFuncR type="discrete" tableValues="0.494118 0.494118"/><feFuncG type="discrete" tableValues="0.933333 0.933333"/><feFuncB type="discrete" tableValues="0.952941 0.952941"/><feFuncA type="linear" slope="0.278431" intercept="0"/></feComponentTransfer><feGaussianBlur stdDeviation="7.99626 7.94923"/></filter><filter id="fx1" x="-10%" y="-10%" width="120%" height="120%" filterUnits="userSpaceOnUse" primitiveUnits="userSpaceOnUse"><feComponentTransfer color-interpolation-filters="sRGB"><feFuncR type="discrete" tableValues="0.494118 0.494118"/><feFuncG type="discrete" tableValues="0.933333 0.933333"/><feFuncB type="discrete" tableValues="0.952941 0.952941"/><feFuncA type="linear" slope="0.278431" intercept="0"/></feComponentTransfer><feGaussianBlur stdDeviation="7.9667 7.9724"/></filter><filter id="fx2" x="-10%" y="-10%" width="120%" height="120%" filterUnits="userSpaceOnUse" primitiveUnits="userSpaceOnUse"><feComponentTransfer color-interpolation-filters="sRGB"><feFuncR type="discrete" tableValues="0.494118 0.494118"/><feFuncG type="discrete" tableValues="0.933333 0.933333"/><feFuncB type="discrete" tableValues="0.952941 0.952941"/><feFuncA type="linear" slope="0.278431" intercept="0"/></feComponentTransfer><feGaussianBlur stdDeviation="7.9667 7.94923"/></filter><filter id="fx3" x="-10%" y="-10%" width="120%" height="120%" filterUnits="userSpaceOnUse" primitiveUnits="userSpaceOnUse"><feComponentTransfer color-interpolation-filters="sRGB"><feFuncR type="discrete" tableValues="0.972549 0.972549"/><feFuncG type="discrete" tableValues="1 1"/><feFuncB type="discrete" tableValues="0.254902 0.254902"/><feFuncA type="linear" slope="0.631373" intercept="0"/></feComponentTransfer><feGaussianBlur stdDeviation="7.39729 7.39063"/></filter><clipPath id="clip4"><rect x="100" y="472" width="1363" height="1233"/></clipPath><clipPath id="clip5"><rect x="-7.54438" y="-7.5" width="102.101" height="82"/></clipPath><clipPath id="clip6"><rect x="0" y="0" width="85" height="67"/></clipPath><clipPath id="clip7"><rect x="-7.51648" y="-7.52186" width="186.033" height="102.047"/></clipPath><clipPath id="clip8"><rect x="0" y="0" width="171" height="86"/></clipPath><clipPath id="clip9"><rect x="-7.51648" y="-7.5" width="186.033" height="94"/></clipPath><clipPath id="clip10"><rect x="0" y="0" width="171" height="79"/></clipPath><clipPath id="clip11"><rect x="-7.50676" y="-7.5" width="128.015" height="117"/></clipPath><clipPath id="clip12"><rect x="0" y="0" width="111" height="101"/></clipPath></defs><g clip-path="url(#clip4)" transform="translate(-100 -472)"><g clip-path="url(#clip5)" filter="url(#fx0)" transform="matrix(7.95294 0 0 8 395 471)"><g clip-path="url(#clip6)"><path d="M42.8545 23.9844C41.6289 23.9844 40.3429 24.1037 39.0004 24.3686 24.7718 27.1703 24.1458 42.9844 24.1458 42.9844L60.8542 34.9151C60.8542 34.9151 54.6016 23.9844 42.8545 23.9844Z" fill="#7EEEF3" fill-rule="evenodd"/></g></g><path d="M735.819 656C726.072 656 715.845 656.955 705.168 659.074 592.009 681.487 587.03 808 587.03 808L878.97 743.446C878.97 743.446 829.244 656 735.819 656Z" fill="#7EEEF3" fill-rule="evenodd"/><g clip-path="url(#clip7)" filter="url(#fx1)" transform="matrix(7.98246 0 0 7.97674 99 553)"><g clip-path="url(#clip8)" transform="translate(1.77636e-15 0)"><path d="M100.527 24.0543C93.0688 24.0543 85.4719 24.6241 78.3251 26.1087 53.2609 31.3197 32.0421 48.3584 24.8541 54.5928 24.4302 55.0164 24.2314 55.4175 24.1301 55.9424 23.9312 56.9883 24.4302 58.1355 25.5782 58.5366 29.3898 59.9912 36.7691 61.9143 49.0254 61.9143 58.8358 61.9143 71.7749 60.681 88.5069 56.9883 126.375 52.5234 141.355 39.2036 146.345 33.2916 146.971 32.568 147.069 31.6196 146.746 30.896 146.446 30.2737 145.921 29.6514 145.099 29.449 137.84 27.7994 119.652 24.0543 100.527 24.0543Z" fill="#D81D94" fill-rule="evenodd"/></g></g><path d="M901.451 738C841.917 738 781.275 742.545 724.227 754.387 524.153 795.954 354.775 931.867 297.397 981.597 294.013 984.977 292.426 988.176 291.617 992.363 290.03 1000.71 294.013 1009.86 303.177 1013.06 333.602 1024.66 392.508 1040 490.343 1040 568.654 1040 671.94 1030.16 805.502 1000.71 1107.78 965.091 1227.36 858.842 1267.19 811.683 1272.19 805.912 1272.97 798.346 1270.39 792.575 1268 787.611 1263.81 782.647 1257.25 781.032 1199.3 767.874 1054.12 738 901.451 738Z" fill="#D81D94" fill-rule="evenodd"/><path d="M613.192 815 507.621 848.092C438.877 891.336 370.762 936.946 306 985.161L306 985.97 306.808 985.97C371.54 937.755 439.685 892.115 507.621 848.871L611.395 816.587 611.395 816.587 507.621 929.579 507.621 930.388 508.609 930.388 614 815.809 614 815Z" fill="#320179" fill-rule="evenodd"/><path d="M758.256 778.03 654.596 806.518 654.596 807.302 608.03 905.186 609.017 906 609.824 905.186 655.374 808.116 758.256 778.814 811.192 869.101 812 869.101 759.063 778.03Z" fill="#320179" fill-rule="evenodd"/><path d="M889.064 757 810.03 767.781 810.03 768.559 851.542 868.191 852.532 869 853.341 868.191 810.81 769.368 889.064 757.808 1012.19 841.689 1013 841.689 1013 840.88 889.844 757Z" fill="#320179" fill-rule="evenodd"/><path d="M929.809 748.03 929 748.813 929.809 749.838 1084.3 825 1084.3 824.006 932.415 749.838 1038.64 756.435 1232.19 796.532 1233 796.532C1233 795.718 1233 795.718 1232.19 795.718L1038.64 754.838 929.809 748.03Z" fill="#320179" fill-rule="evenodd"/><g clip-path="url(#clip9)" filter="url(#fx2)" transform="matrix(7.98246 0 0 8 99 607)"><g clip-path="url(#clip10)" transform="translate(1.77636e-15 0)"><path d="M146.746 23.9844 146.746 23.9844C141.453 24.1829 125.426 25.4306 85.0892 31.9873 45.649 38.3191 29.7462 45.5989 24.1301 49.0159 23.9312 50.0612 24.4302 51.2077 25.5782 51.6086 29.3898 53.0623 36.7691 54.9844 49.0254 54.9844 58.8358 54.9844 71.7749 53.7517 88.5069 50.0612 126.375 45.5989 141.355 32.287 146.345 26.3785 146.971 25.6554 147.069 24.7075 146.746 23.9844Z" fill="#2B54B6" fill-rule="evenodd"/></g></g><path d="M1270.39 792 1270.39 792C1228.14 793.589 1100.21 803.57 778.221 856.023 463.391 906.678 336.447 964.917 291.617 992.252 290.03 1000.61 294.013 1009.79 303.177 1012.99 333.602 1024.62 392.508 1040 490.343 1040 568.654 1040 671.94 1030.14 805.502 1000.61 1107.78 964.917 1227.36 858.421 1267.19 811.153 1272.19 805.368 1272.97 797.785 1270.39 792Z" fill="#2B54B6" fill-rule="evenodd"/><path d="M848.411 912.03C828.08 912.03 802.756 914.551 775.429 919.622 720.714 930.425 675.956 948.58 667.614 963.555 666.807 965.355 666.03 967.756 666.03 969.556 667.973 978.259 687.019 982.97 714.974 982.97 735.096 982.97 759.852 980.539 786.192 975.348 850.026 962.774 898.97 941.198 895.591 925.414 895.591 924.634 894.814 922.833 894.007 922.023 888.685 915.391 871.882 912.03 848.411 912.03Z" fill="#320179" fill-rule="evenodd"/><path d="M764.791 669C758.423 669 752.776 671.238 750.433 677.862 748.03 682.845 749.622 687.799 753.016 691.976 755.419 696.124 760.406 699.317 764.611 701.883 769.597 704.27 773.803 706.061 778.789 706.866 781.763 707.433 784.647 707.97 787.56 707.97 788.762 707.97 789.963 707.881 791.195 707.642 795.4 706.866 798.795 704.27 801.198 701.107 802.97 697.735 801.979 693.558 800.387 689.38 796.992 683.621 792.006 677.862 785.398 674.49 780.111 671.865 772.001 669 764.791 669Z" fill="#FDFDFB" fill-rule="evenodd"/><g clip-path="url(#clip11)" filter="url(#fx3)" transform="matrix(9.99099 0 0 10 283 696)"><g clip-path="url(#clip12)" transform="matrix(1 0 0 1 0 1.42109e-14)"><path d="M57.2905 22.2905C56.8586 22.2905 56.3728 22.3025 55.8299 22.3354 53.9134 22.4132 51.5981 22.6737 48.107 23.3293 46.3495 23.6676 44.694 24.1675 43.5153 24.4848 39.2055 25.9786 38.5277 27.3946 38.5277 27.3946L32.4603 44.0841 25.5562 63.2464 22.9829 70.3981 22.3231 72.1315C29.5481 76.2746 37.8678 78.6845 46.8504 78.6845 64.6505 78.6845 80.1952 69.1438 88.6769 54.8612L85.1859 50.8767 82.9305 48.2273 69.7971 33.2113 60.8176 22.9102C60.8176 22.9102 60.2567 22.2905 57.2905 22.2905Z" fill="#F8FF41" fill-rule="evenodd" fill-opacity="0.67451"/></g></g><path d="M855.389 912.03C851.074 912.03 846.22 912.15 840.796 912.479 821.649 913.257 798.516 915.862 763.637 922.418 746.078 925.801 729.537 930.8 717.761 933.973 674.702 948.911 667.93 963.071 667.93 963.071L607.311 1129.97 538.332 1321.59 512.622 1393.11 506.03 1410.44C578.215 1451.87 661.337 1475.97 751.082 1475.97 928.922 1475.97 1084.23 1380.56 1168.97 1237.74L1134.09 1197.89 1111.56 1171.4 980.342 1021.24 890.628 918.227C890.628 918.227 885.024 912.03 855.389 912.03Z" fill="#F8FF41" fill-rule="evenodd" fill-opacity="0.67451"/></g></svg>